<svg width="25" height="25" viewBox="0 0 25 25" fill="none" xmlns="http://www.w3.org/2000/svg">
<path d="M5.72887 15.1735L3.91604 23.0234C3.8599 23.2611 3.87676 23.5102 3.9644 23.7382C4.05204 23.9662 4.20639 24.1624 4.40729 24.3013C4.6082 24.4402 4.84632 24.5153 5.09055 24.5167C5.33479 24.5182 5.57378 24.4459 5.77632 24.3094L12.4011 19.8929L19.0258 24.3094C19.2331 24.447 19.4775 24.5179 19.7262 24.5124C19.9749 24.507 20.2159 24.4255 20.417 24.2789C20.618 24.1324 20.7693 23.9278 20.8505 23.6927C20.9318 23.4576 20.9391 23.2032 20.8715 22.9638L18.6462 15.1771L24.165 10.2107C24.3418 10.0515 24.468 9.84407 24.5281 9.61393C24.5882 9.3838 24.5795 9.1411 24.5031 8.91585C24.4268 8.6906 24.286 8.49267 24.0984 8.34655C23.9107 8.20043 23.6843 8.11252 23.4472 8.0937L16.511 7.54133L13.5095 0.897113C13.4137 0.683169 13.2582 0.501496 13.0615 0.374019C12.8648 0.246543 12.6354 0.178711 12.4011 0.178711C12.1667 0.178711 11.9373 0.246543 11.7407 0.374019C11.544 0.501496 11.3884 0.683169 11.2927 0.897113L8.29117 7.54133L1.35496 8.09248C1.12191 8.11094 0.899118 8.19615 0.713232 8.33792C0.527346 8.47968 0.386238 8.672 0.30679 8.89186C0.227342 9.11173 0.212918 9.34982 0.265243 9.57767C0.317569 9.80551 0.434428 10.0135 0.60184 10.1766L5.72887 15.1735ZM9.20002 9.91018C9.41719 9.89307 9.62576 9.81785 9.80386 9.69241C9.98196 9.56697 10.123 9.39593 10.2123 9.19721L12.4011 4.35366L14.5899 9.19721C14.6791 9.39593 14.8202 9.56697 14.9983 9.69241C15.1764 9.81785 15.385 9.89307 15.6021 9.91018L20.4347 10.2934L16.455 13.8753C16.1095 14.1868 15.972 14.6661 16.0985 15.1139L17.623 20.4489L13.0775 17.4182C12.878 17.2843 12.6432 17.2128 12.4029 17.2128C12.1626 17.2128 11.9278 17.2843 11.7283 17.4182L6.97839 20.5852L8.25589 15.0542C8.30273 14.8508 8.29644 14.6388 8.23763 14.4385C8.17883 14.2382 8.06947 14.0564 7.92009 13.9106L4.22386 10.3068L9.20002 9.91018Z" fill="#F3CD03"/>
</svg>
