<svg width="33" height="33" viewBox="0 0 33 33" fill="none" xmlns="http://www.w3.org/2000/svg">
<path d="M30.7321 0.429688H1.27302C0.564559 0.429688 -0.0078125 1.00206 -0.0078125 1.71052V31.1696C-0.0078125 31.8781 0.564559 32.4505 1.27302 32.4505H30.7321C31.4406 32.4505 32.013 31.8781 32.013 31.1696V1.71052C32.013 1.00206 31.4406 0.429688 30.7321 0.429688ZM27.0337 9.77575H24.4761C22.4708 9.77575 22.0825 10.7284 22.0825 12.1293V15.2153H26.8696L26.2452 20.0464H22.0825V32.4505H17.0913V20.0504H12.9166V15.2153H17.0913V11.653C17.0913 7.51829 19.6169 5.26482 23.3073 5.26482C25.0765 5.26482 26.5934 5.39691 27.0377 5.45695V9.77575H27.0337Z" fill="#2091F9"/>
</svg>
