<svg width="25" height="25" viewBox="0 0 25 25" fill="none" xmlns="http://www.w3.org/2000/svg">
<path d="M24.304 8.91507C24.2276 8.68982 24.0868 8.4919 23.8991 8.34574C23.7115 8.19958 23.4851 8.11158 23.248 8.0926L16.3118 7.54145L13.3102 0.897233C13.2146 0.683237 13.0592 0.501478 12.8626 0.373893C12.666 0.246309 12.4366 0.178351 12.2022 0.178223C11.9679 0.178094 11.7385 0.2458 11.5417 0.373168C11.345 0.500537 11.1893 0.682125 11.0935 0.896017L8.09195 7.54145L1.15574 8.0926C0.922692 8.11106 0.699899 8.19627 0.514013 8.33804C0.328127 8.47981 0.18702 8.67212 0.107572 8.89199C0.0281235 9.11185 0.0136992 9.34994 0.0660245 9.57779C0.11835 9.80563 0.235209 10.0136 0.402622 10.1767L5.52844 15.1736L3.71561 23.0235C3.66056 23.2611 3.6782 23.5098 3.76624 23.7373C3.85428 23.9647 4.00866 24.1605 4.20933 24.2991C4.41001 24.4378 4.64772 24.5129 4.89161 24.5147C5.13551 24.5166 5.37434 24.4451 5.5771 24.3096L12.2019 19.8931L18.8266 24.3096C19.0338 24.4471 19.2783 24.518 19.527 24.5125C19.7757 24.5071 20.0167 24.4256 20.2177 24.279C20.4187 24.1325 20.5701 23.9279 20.6513 23.6928C20.7326 23.4577 20.7399 23.2033 20.6723 22.9639L18.447 15.1772L23.9658 10.2108C24.3272 9.88475 24.4598 9.37618 24.304 8.91507Z" fill="#F3CD03"/>
</svg>
